<svg version="1.1" id="Layer_1" xmlns="http://www.w3.org/2000/svg" xmlns:xlink="http://www.w3.org/1999/xlink" x="0px" y="0px"
	 width="100%" viewBox="0 0 784 1024" enable-background="new 0 0 784 1024" xml:space="preserve">
<path fill="#000000" opacity="1.000000" stroke="none" 
	d="
M751.285400,490.996155 
	C749.686462,547.677246 730.369507,596.742371 692.533630,638.471497 
	C678.226379,654.250977 662.346436,668.080261 644.031555,678.994263 
	C640.765991,680.940247 639.769409,683.523865 639.215027,687.073059 
	C636.264893,705.958923 638.783081,724.565674 641.567078,743.187561 
	C642.712280,750.847900 642.599609,758.531433 640.489685,765.994019 
	C637.211731,777.587585 629.636047,786.107605 618.981995,791.015015 
	C591.328064,803.752808 562.462341,806.940063 532.778931,799.434692 
	C518.827148,795.906982 508.869873,787.832581 506.229126,772.841614 
	C505.429596,768.302673 502.476410,769.150757 499.455109,769.507935 
	C487.984375,770.864258 476.591339,770.732178 465.170959,768.555054 
	C454.579803,766.536072 445.585358,760.452271 446.583832,747.284851 
	C446.665924,746.202332 446.204254,745.078552 445.773132,742.800110 
	C443.233948,753.488464 442.846588,763.240417 441.566681,772.862732 
	C439.397522,789.170654 430.242401,799.986389 415.118835,805.656799 
	C386.513000,816.382263 357.708527,815.957336 329.058197,805.890259 
	C314.369904,800.729126 305.418121,786.839233 308.273712,771.403503 
	C311.175598,755.717468 313.769714,739.945374 314.960480,723.997559 
	C315.057648,722.696350 315.511261,721.383240 314.613007,719.613953 
	C312.640564,721.246765 312.676849,723.344360 312.377747,725.313782 
	C310.379456,738.471130 308.485718,751.646057 306.304382,764.773193 
	C305.106445,771.982239 300.783630,777.073425 294.368561,780.494446 
	C287.974274,783.904480 281.110046,786.223877 274.050812,787.180847 
	C253.127914,790.017029 232.513580,788.628479 212.610397,780.917053 
	C211.214661,780.376160 209.858032,779.722961 208.516632,779.054871 
	C191.684753,770.671204 187.121887,761.171387 190.120773,742.594177 
	C193.824265,719.652222 202.101669,697.940491 207.656693,675.497559 
	C212.334396,656.599121 217.761581,637.885254 222.953339,619.116272 
	C223.781708,616.121643 223.923538,613.265991 223.125595,610.274963 
	C219.463089,596.546631 217.672272,582.518311 217.171982,568.365173 
	C216.611099,552.497253 219.434753,536.916382 221.976212,521.328308 
	C225.774078,498.033997 234.827972,476.230225 241.046906,453.623840 
	C241.961670,450.298645 243.442871,447.028198 242.420792,443.072937 
	C236.050797,442.513367 230.030472,444.585358 223.918839,445.714020 
	C194.103333,451.220215 164.945923,450.117340 136.886169,437.389465 
	C135.976852,436.976959 134.933777,436.749359 134.161270,436.161774 
	C123.122307,427.765717 109.736671,424.967987 97.168480,420.044281 
	C70.118896,409.447388 51.145561,390.096008 44.543335,361.491364 
	C37.144485,329.435211 45.913342,300.891174 68.553680,276.885773 
	C74.490562,270.590912 80.463951,264.279449 87.302933,258.910461 
	C94.168518,253.520615 96.705261,246.275940 98.164055,237.823685 
	C102.981102,209.913666 115.247513,185.812393 136.643448,166.747086 
	C162.956741,143.300064 192.852844,127.727219 228.499954,124.654167 
	C234.128464,124.168945 239.731186,123.343803 245.365524,122.984886 
	C248.018707,122.815865 249.103378,121.357437 250.117340,119.304405 
	C256.599640,106.179550 267.369568,97.544930 280.013031,90.880363 
	C301.113892,79.757797 323.678009,88.705063 332.071381,112.562630 
	C334.557343,119.628769 336.069733,126.981461 336.433594,134.531494 
	C336.535889,136.654312 337.106110,138.754593 337.451080,140.802353 
	C339.889160,141.308212 341.076050,139.589417 342.596924,138.734299 
	C357.657104,130.266647 373.516632,125.370346 390.938049,128.746246 
	C402.514282,130.989471 411.304688,141.124069 412.324524,152.871460 
	C413.575867,167.285965 410.692261,180.971954 404.691956,194.077652 
	C403.460907,196.766434 401.687439,199.281921 401.495392,202.415359 
	C403.241852,204.484802 405.569824,203.632721 407.594330,203.592041 
	C415.974640,203.423553 424.227661,203.981094 432.233215,206.737854 
	C453.653107,214.114014 461.612701,237.289124 449.322174,256.305237 
	C442.538422,266.801208 434.450531,275.895355 423.501129,282.259674 
	C420.795227,283.832489 417.365997,283.929047 415.090729,286.447662 
	C415.966736,288.362305 417.713409,287.591858 419.013153,287.823242 
	C433.388641,290.382385 445.602356,296.437225 453.588959,309.235596 
	C460.436371,320.208466 459.951996,332.288208 451.841736,342.271210 
	C440.910919,355.726105 426.807526,363.423584 409.291168,364.393097 
	C407.552338,364.489319 405.463684,363.933167 404.578644,367.374939 
	C419.172607,370.457245 433.652161,374.420715 440.390442,389.771057 
	C446.457825,403.592987 447.720795,417.968140 444.459167,433.193848 
	C445.872833,431.536285 447.279968,429.873077 448.701172,428.222046 
	C457.958435,417.467834 467.446228,406.997955 480.312042,400.299957 
	C486.485291,397.086182 492.871155,394.995911 499.912354,395.411743 
	C514.578552,396.277893 522.583252,405.285278 527.293030,418.092834 
	C529.956543,425.335968 530.678894,432.988037 531.221497,440.630981 
	C531.491516,444.434235 531.592346,448.249512 531.771423,452.097351 
	C534.241821,452.522217 535.346619,450.820465 536.747742,449.822205 
	C545.074097,443.890137 553.617737,438.315399 564.033997,436.955139 
	C584.717041,434.254211 598.851318,445.182434 602.341980,465.669739 
	C604.253601,476.889435 600.902100,487.466248 599.695923,498.313904 
	C599.495789,500.114227 599.095154,501.892303 598.651550,504.468109 
	C607.550049,503.707214 615.865417,502.103973 623.343079,498.120972 
	C653.558655,482.026611 671.685425,457.172607 676.804688,423.086975 
	C680.214172,400.385864 674.954407,379.120880 666.431030,358.346466 
	C664.982178,354.814911 663.247681,351.382385 662.664124,347.524109 
	C661.450500,339.499603 665.671326,334.220673 673.824829,333.798859 
	C684.891785,333.226257 693.275330,338.863434 700.822571,345.956543 
	C723.241699,367.026733 736.562744,393.201294 744.251587,422.730896 
	C750.056458,445.025177 752.225647,467.567993 751.285400,490.996155 
M640.289124,666.481995 
	C640.230652,668.998657 641.426453,669.397217 643.394836,668.241272 
	C646.408386,666.471558 649.571777,664.885193 652.345825,662.789856 
	C691.864319,632.939331 719.031677,594.387512 733.833557,547.089172 
	C740.790894,524.857178 741.990417,502.041565 741.829346,478.963562 
	C741.593811,445.217560 734.682678,413.151276 718.503845,383.403351 
	C710.391663,368.487457 700.410400,354.996735 685.305725,346.205902 
	C682.259521,344.433044 679.151245,342.841827 675.472229,343.001953 
	C672.224731,343.143341 670.906006,344.382355 672.272034,347.790741 
	C674.624939,353.661377 676.641479,359.666748 678.992004,365.538361 
	C688.556519,389.431152 689.787964,414.124329 683.057251,438.553223 
	C672.405212,477.214447 647.162292,502.254333 608.238159,513.027527 
	C605.432617,513.804016 602.355347,513.601013 599.745544,515.118774 
	C599.983398,516.975647 601.165955,517.976196 602.039856,519.172668 
	C606.756714,525.630188 611.537048,532.044556 616.093933,538.613647 
	C617.498779,540.638855 620.575012,543.411987 618.161377,545.463135 
	C615.329651,547.869568 613.190857,544.106934 611.357483,542.273132 
	C600.993347,531.906555 591.694641,520.526245 580.967712,510.490479 
	C533.672668,466.242798 478.329468,442.180786 412.914307,443.444153 
	C405.995819,443.577728 399.148376,444.752838 392.803650,446.756348 
	C392.311035,448.656494 393.121826,449.608551 393.604858,450.634583 
	C394.343079,452.202606 395.102448,453.995605 393.586487,455.235992 
	C391.807068,456.691986 390.049896,455.315247 388.715149,454.110901 
	C385.903839,451.574188 384.531067,448.262085 383.668915,444.576630 
	C380.599121,431.454651 382.185516,418.418030 384.420807,405.456970 
	C387.367371,388.371857 392.716583,371.856079 397.442352,355.227997 
	C406.219666,324.344452 407.731445,293.199890 401.408112,261.877838 
	C395.483154,232.529099 381.942749,206.744125 361.862152,184.475281 
	C336.057465,155.858505 303.900482,138.301636 265.862640,133.792969 
	C224.923721,128.940399 187.366013,139.257278 153.998520,164.310272 
	C127.700195,184.055557 112.249405,209.911118 107.150177,242.221390 
	C105.590981,252.100937 101.621780,260.637634 93.201546,266.712372 
	C87.095581,271.117462 82.003448,276.676971 76.816917,282.085266 
	C62.544796,296.967621 53.170906,314.399933 51.462189,335.131134 
	C48.674133,368.957489 68.679420,399.412323 101.020546,411.649261 
	C115.319649,417.059631 130.011002,418.189819 145.202820,416.916443 
	C163.899887,415.349243 181.146866,410.016296 196.575485,399.363586 
	C207.710495,391.675415 215.355194,381.253998 219.590164,368.099152 
	C218.340302,367.476501 217.512177,366.937317 216.604965,366.637146 
	C214.411606,365.911499 211.545578,365.634491 211.861984,362.518280 
	C212.185852,359.328552 215.196182,358.909515 217.609482,358.859100 
	C225.262497,358.699249 231.977646,361.334320 237.433105,366.741425 
	C239.705414,368.993500 241.031326,371.907654 238.656616,374.776093 
	C236.228180,377.709473 233.801559,375.559509 231.712265,373.964600 
	C228.744385,371.698944 227.056229,372.211243 226.034302,375.866486 
	C224.393051,381.736877 221.126755,386.764069 217.429382,391.538757 
	C202.742676,410.504883 182.669876,419.938629 159.680481,424.253113 
	C152.059509,425.683380 144.327118,426.035919 136.579163,426.194824 
	C136.702347,427.810364 137.561081,428.103943 138.280121,428.392731 
	C154.448822,434.886383 171.001755,440.006317 188.615265,439.813354 
	C213.242935,439.543549 237.290634,435.001587 260.763916,427.882080 
	C278.826050,422.403778 296.255157,415.250031 311.034637,402.928925 
	C312.462128,401.738922 314.366302,399.929749 316.306000,401.807922 
	C318.276581,403.716003 316.945007,405.904755 315.724518,407.691101 
	C313.831055,410.462463 311.301727,412.678711 308.652252,414.700623 
	C293.440186,426.309570 276.198761,433.584625 257.764404,438.197876 
	C254.894913,438.915985 252.935287,439.954834 252.351669,443.116455 
	C249.443100,458.873230 244.335541,474.059326 239.715958,489.336609 
	C230.302643,520.467041 223.482941,551.817810 227.309982,584.630127 
	C229.786911,605.866699 235.541763,626.165588 246.045715,644.789185 
	C261.366425,671.952881 284.363098,691.423401 310.845428,707.108582 
	C312.413574,708.037415 314.021301,709.653198 316.303314,708.747803 
	C316.303314,696.204956 316.499298,683.735046 316.234650,671.274902 
	C316.057220,662.920227 316.400940,654.644714 317.808044,646.420959 
	C318.182434,644.232849 318.991272,641.831482 321.775085,642.238159 
	C324.328186,642.611023 324.131592,645.076782 324.210510,647.075012 
	C324.236786,647.740784 324.226379,648.408081 324.228363,649.074707 
	C324.279755,666.407593 324.365906,683.740417 324.371857,701.073303 
	C324.378326,719.897522 323.513641,738.641296 319.661896,757.161499 
	C319.025513,760.221375 318.092224,763.460266 318.718353,767.208252 
	C325.578094,761.314026 332.596832,760.137146 340.368256,764.051758 
	C347.967072,767.879456 350.092621,775.253662 352.365265,782.892944 
	C355.918152,779.322021 358.927155,776.012451 362.839874,773.668457 
	C374.227936,766.846313 384.282928,771.105835 387.505615,784.094482 
	C389.050934,790.322632 387.998474,796.619751 388.233551,803.320068 
	C399.622192,801.585754 410.148987,798.322937 419.768982,792.353821 
	C426.990479,787.872925 431.133301,781.407166 432.751007,773.072083 
	C434.813599,762.445068 435.978607,751.702698 437.268738,740.976807 
	C439.556458,721.957092 440.450409,702.859436 439.934753,683.707642 
	C439.724152,675.886475 440.088684,668.045837 439.091461,660.243652 
	C438.893097,658.691589 438.771332,656.599182 440.830231,656.045959 
	C442.871490,655.497498 443.769104,657.319397 444.493744,658.778015 
	C445.227142,660.254211 445.855347,661.855469 446.136993,663.470459 
	C447.279358,670.021790 448.402161,676.566406 448.276794,683.279968 
	C448.021790,696.931274 448.416656,710.586792 447.363708,724.232971 
	C446.759888,732.058655 447.088135,731.880920 455.061371,732.049805 
	C471.288666,732.393555 487.287720,730.514832 503.211884,727.665894 
	C504.669464,727.405151 506.221710,727.431519 507.296967,725.700073 
	C497.251465,709.356201 493.648712,691.403564 495.728333,672.342712 
	C497.792908,653.419556 504.179230,636.070557 515.894104,620.923828 
	C518.421448,617.656189 521.589783,614.862610 524.615479,612.012756 
	C525.829956,610.868835 527.537048,610.094238 529.121948,611.480652 
	C530.627686,612.797791 529.694824,614.297546 528.921204,615.541138 
	C527.605103,617.656677 526.166626,619.703186 524.678162,621.703247 
	C506.056885,646.724182 500.052643,674.389954 507.621918,704.725769 
	C510.447052,716.048462 515.862610,725.872620 526.714539,731.603271 
	C532.594666,734.708557 538.322815,738.141296 544.822327,739.974121 
	C546.742859,740.515625 549.722595,741.025024 549.071411,743.902344 
	C548.398438,746.875916 545.456848,746.339172 543.191467,746.112183 
	C538.417236,745.633728 534.327332,743.328674 530.377563,740.816345 
	C527.361023,738.897461 524.975037,739.225220 522.514648,741.948486 
	C516.962280,748.093933 514.828674,755.450317 514.540710,763.454285 
	C514.465332,765.549072 513.709961,768.054443 516.059448,770.082397 
	C521.963379,760.946411 529.282166,754.253296 540.740662,756.387146 
	C551.312012,758.355835 554.861694,766.822937 556.792114,776.806030 
	C561.999573,766.655334 570.036011,761.622742 580.649841,763.611572 
	C594.029785,766.118713 597.612000,776.939453 598.838257,789.178101 
	C601.168945,788.531921 603.104736,788.107056 604.964172,787.461914 
	C619.062317,782.570129 630.353821,774.878235 633.301392,758.900269 
	C634.385132,753.025757 633.068298,747.316833 632.246216,741.565857 
	C630.149841,726.899841 627.117371,712.146973 629.031128,697.367493 
	C631.739441,676.451294 632.903381,655.621826 630.570435,634.640259 
	C630.478760,633.815918 630.409607,632.976868 630.458496,632.152283 
	C630.510803,631.268127 630.995972,630.553772 631.852478,630.266174 
	C632.768188,629.958618 633.572449,630.424927 633.964600,631.170532 
	C634.811279,632.780212 635.705872,634.415039 636.206909,636.147766 
	C638.995422,645.791077 640.603882,655.612061 640.289124,666.481995 
M206.720612,715.070801 
	C204.318710,723.498901 201.916794,731.927002 199.197296,741.469543 
	C206.483536,736.476929 213.154877,734.781250 220.028198,739.400940 
	C226.691666,743.879639 228.553528,750.763245 228.503647,758.966064 
	C229.790939,757.746399 230.519653,757.092712 231.207458,756.398438 
	C236.899826,750.652588 243.624207,747.961121 251.619034,750.226501 
	C259.671295,752.508179 261.279358,759.556885 262.906586,766.479126 
	C263.885559,770.643616 262.588440,775.056152 264.161621,779.378174 
	C266.813080,779.130920 269.292206,779.066040 271.710327,778.648071 
	C292.030151,775.135620 297.981506,771.726257 300.947845,752.154419 
	C302.542114,741.635437 303.784424,731.042236 306.835327,720.825928 
	C307.927063,717.169983 306.826538,715.531067 303.740875,713.737366 
	C270.966431,694.685242 246.229538,668.243286 230.543167,633.556824 
	C230.120270,632.621643 230.019547,631.167725 227.848907,631.353210 
	C220.946259,658.919067 214.851425,686.843811 206.720612,715.070801 
M354.088165,163.392227 
	C367.591217,174.850311 378.605286,188.522110 388.860962,203.537582 
	C391.751282,198.182083 394.323212,193.586044 396.721619,188.901184 
	C397.930023,186.540787 398.812103,184.014267 399.862030,181.571579 
	C402.872223,174.568405 403.979950,167.273972 403.678986,159.658508 
	C403.141479,146.057480 397.372253,138.504028 385.542297,136.427032 
	C381.036316,135.635941 376.570618,136.276184 372.160950,137.180115 
	C360.633209,139.543137 350.412933,144.755157 339.999451,151.607864 
	C344.938171,155.735641 349.242432,159.333115 354.088165,163.392227 
M417.220490,380.246918 
	C414.019714,379.376251 410.836426,378.433502 407.613922,377.652557 
	C403.253723,376.595978 400.644592,377.850739 399.180298,382.618378 
	C395.318573,395.191589 392.673798,408.014008 390.639648,420.958435 
	C389.860504,425.916595 390.018921,431.057648 390.755371,436.431030 
	C404.733704,434.823822 418.114746,433.807434 431.549683,433.799500 
	C434.172729,433.797943 434.839813,432.263153 435.121368,430.002350 
	C436.153137,421.716919 436.693848,413.325012 435.411682,405.140137 
	C433.712646,394.294312 429.610840,384.555176 417.220490,380.246918 
M445.842896,244.153839 
	C449.007721,229.809860 442.900757,219.193451 428.829193,214.949295 
	C422.273163,212.971924 415.464600,212.007568 408.655457,212.659805 
	C404.322845,213.074814 399.685791,212.619736 395.150970,215.326721 
	C402.607941,235.329514 411.506622,254.810074 413.611084,277.411743 
	C428.136505,268.997314 439.890015,259.960724 445.842896,244.153839 
M484.821747,408.286072 
	C472.562561,414.723358 462.463318,423.405060 455.278503,436.114594 
	C478.536346,440.126343 500.244385,446.824554 521.248901,456.449585 
	C523.146362,443.221771 521.545654,428.060181 517.519531,418.571381 
	C513.140320,408.250305 506.208679,404.149963 495.069153,405.208496 
	C491.695068,405.529144 488.621796,406.771790 484.821747,408.286072 
M266.372040,111.865593 
	C263.953857,115.563110 260.509949,118.583649 258.467621,123.737473 
	C283.048981,125.113174 305.747101,131.639664 327.553955,144.364120 
	C327.693634,130.154465 326.129395,117.799538 319.007629,106.767975 
	C312.552704,96.769386 303.921417,93.441124 292.384308,95.907570 
	C282.064606,98.113762 273.615936,103.318306 266.372040,111.865593 
M590.871216,494.484467 
	C592.910950,485.490570 593.611633,476.387848 592.696716,467.215637 
	C591.101868,451.225983 580.383240,443.252350 564.706665,446.313080 
	C552.946716,448.609070 543.492737,455.049103 533.797363,463.214203 
	C554.348022,473.853485 571.611877,487.515045 587.731750,502.696289 
	C590.256409,500.258698 590.356201,497.722076 590.871216,494.484467 
M448.539001,318.110718 
	C446.302307,310.366241 440.850189,305.441498 434.072235,301.722809 
	C429.931885,299.451263 425.314087,298.594666 420.787231,297.512787 
	C414.593384,296.032410 414.031036,296.330933 414.208252,302.629852 
	C414.652008,318.398254 412.326263,333.783173 408.480164,349.014648 
	C407.989227,350.958984 406.539368,353.028442 408.362396,355.691681 
	C422.489014,352.955994 435.907135,348.699036 445.047394,336.308167 
	C448.845551,331.159241 450.523346,325.318024 448.539001,318.110718 
M550.744202,782.680298 
	C550.819458,778.281982 549.859741,774.098755 548.042908,770.114563 
	C545.322998,764.149902 540.166748,761.607056 533.756897,763.155579 
	C527.052002,764.775391 523.891785,769.838745 521.338928,775.723755 
	C519.546509,779.855652 520.633240,782.590515 523.978455,785.201721 
	C528.853210,789.006836 534.467957,790.817017 540.365906,792.116333 
	C550.988586,794.456726 550.981567,794.488647 550.744202,782.680298 
M361.182739,782.661560 
	C356.266937,788.303528 351.986603,794.274902 350.664215,802.174683 
	C360.185699,804.385559 369.344208,805.105713 378.641052,804.011719 
	C380.315552,803.814697 381.515930,803.195801 381.678406,801.368164 
	C382.012848,797.606140 383.040833,793.973633 382.222046,790.042419 
	C379.149078,775.288025 374.127930,773.290283 361.182739,782.661560 
M331.557037,768.300415 
	C324.709778,768.755615 320.676666,772.690369 318.722351,778.953735 
	C316.824951,785.034729 320.240479,789.035278 324.429382,792.672546 
	C329.083862,796.714111 334.827515,798.367004 340.517242,800.196472 
	C343.453094,801.140503 344.108124,799.177185 344.432648,797.181396 
	C345.121582,792.944641 345.942230,788.716370 345.633545,784.360840 
	C344.973846,775.053345 340.665253,769.777893 331.557037,768.300415 
M510.298950,743.975403 
	C511.799347,741.364807 513.299744,738.754150 515.046997,735.713928 
	C504.689972,737.406067 495.050842,738.937073 485.433929,740.596924 
	C483.896057,740.862488 481.542450,741.033875 481.558075,743.060059 
	C481.605408,749.191467 479.378113,755.030090 479.056427,761.348816 
	C485.446838,762.149170 491.320404,761.312378 497.243774,760.891785 
	C502.855652,760.493286 506.540833,758.924805 507.052338,752.535828 
	C507.267609,749.846863 508.950989,747.275391 510.298950,743.975403 
M591.229736,789.485352 
	C592.759460,781.003967 589.268311,773.710510 582.138733,770.492981 
	C576.493591,767.945312 569.371887,769.959534 565.422119,775.501709 
	C561.658630,780.782654 561.108276,787.088806 559.566406,793.436157 
	C566.027527,794.647400 571.840942,794.288330 577.520508,793.485168 
	C582.002808,792.851257 586.864258,793.179321 591.229736,789.485352 
M233.145554,777.486450 
	C236.739212,778.069763 240.342194,778.601196 243.924805,779.245911 
	C256.202332,781.455322 259.842682,777.335144 256.261078,765.222107 
	C256.026520,764.428772 255.705963,763.660461 255.417557,762.883484 
	C252.931046,756.183533 248.986328,754.369568 242.160095,756.844971 
	C235.793671,759.153503 232.146271,764.285339 229.063400,769.861755 
	C226.289902,774.878418 226.722061,775.647217 233.145554,777.486450 
M216.637177,744.602173 
	C210.592468,741.763733 206.028641,743.121338 202.117737,748.921326 
	C198.252563,754.653442 198.420288,760.803284 202.773407,764.910828 
	C206.339157,768.275513 210.748550,770.297241 215.242233,772.140198 
	C217.354065,773.006287 218.627945,772.396057 219.706909,770.428284 
	C223.683105,763.176758 222.563141,751.200806 216.637177,744.602173 
M469.347290,760.582886 
	C474.241516,757.293518 473.133698,751.936218 473.804260,747.255676 
	C474.140350,744.909546 473.784943,742.069397 470.585236,742.180359 
	C465.826141,742.345398 460.717743,740.374023 456.413605,743.908447 
	C455.949890,744.289246 456.101837,745.481750 456.058167,746.302490 
	C455.614441,754.643433 458.549988,757.968567 469.347290,760.582886 
z"/>
<path fill="#000000" opacity="1.000000" stroke="none" 
	d="
M405.905518,1000.365051 
	C401.038635,1000.310974 396.412994,1002.030151 391.855774,999.920166 
	C390.253540,999.178345 389.098724,1000.739929 387.650055,1001.003052 
	C380.905487,1002.227966 379.618164,1001.105774 380.730164,993.495544 
	C379.175812,995.975342 379.586823,998.292664 377.982971,999.609863 
	C375.993683,1001.243713 373.809875,1001.206665 371.384766,1000.879578 
	C369.300598,1000.598511 366.880676,1001.582397 365.052979,1000.869385 
	C360.754059,999.192200 363.174072,995.134277 362.767303,992.119202 
	C362.407837,989.455383 364.371277,988.783081 366.628906,988.779175 
	C371.958862,988.769897 377.241943,989.957703 382.637054,988.929626 
	C385.162689,988.448364 386.910553,989.732056 385.694794,992.822998 
	C385.330902,993.748230 385.088013,994.743042 385.893433,995.867004 
	C388.630188,994.305359 386.860962,989.091858 391.178131,989.029480 
	C395.415436,988.968262 394.377930,993.306763 396.380768,995.892029 
	C397.002380,991.634888 396.557800,986.231384 403.095734,990.341431 
	C403.558380,990.632324 404.786774,989.623352 405.690582,989.309387 
	C408.388550,988.372253 409.796295,989.677002 410.319672,992.488586 
	C412.641144,989.395081 415.201782,987.969604 418.707947,989.637939 
	C419.846039,990.179382 420.830261,989.960327 422.005127,989.456421 
	C424.357361,988.447327 426.953003,988.063904 429.081238,989.849792 
	C431.349701,991.753235 428.512909,993.791809 428.856415,996.033569 
	C430.715118,996.018616 430.661713,994.463196 431.021637,993.388367 
	C431.715485,991.316589 432.170074,989.036621 435.006195,988.994263 
	C437.944916,988.950317 438.208496,991.408264 438.933685,993.399658 
	C439.208099,994.153198 439.472412,994.910400 439.741486,995.666443 
	C441.441803,995.377075 441.140930,994.287781 440.985840,993.370422 
	C440.907257,992.905640 440.533875,992.492432 440.301666,992.051697 
	C439.760712,991.025146 439.949707,990.143921 440.839294,989.406128 
	C441.386230,988.952637 453.042145,988.968689 453.755005,989.420471 
	C454.494751,989.889343 455.038513,990.494263 454.966553,991.428101 
	C454.809601,993.466003 452.081299,993.030579 451.661560,994.830933 
	C454.828308,997.928589 457.339447,997.615784 458.882599,993.924805 
	C459.010437,993.618958 459.069153,993.284973 459.186371,992.973938 
	C460.007233,990.796021 461.406891,989.242493 463.837067,988.993103 
	C465.080963,988.865479 466.323334,989.365906 466.753601,990.515381 
	C467.809509,993.336365 463.929352,992.882080 463.516266,995.629578 
	C465.325409,996.539368 466.611725,997.765808 467.714783,994.186584 
	C469.673431,987.831299 473.463989,987.089905 478.150146,991.830688 
	C479.130890,990.455688 488.174652,988.458679 490.154785,989.179810 
	C492.416626,990.003662 492.965393,993.882996 491.583801,1000.841431 
	C487.382660,999.027527 482.586395,1002.474060 477.855774,998.957397 
	C475.844543,1001.410339 472.705719,1000.339417 469.587769,1000.659546 
	C465.462341,1001.083069 461.226624,998.732605 457.288300,1001.129883 
	C457.160492,1001.207581 456.941254,1001.225525 456.798431,1001.175293 
	C449.906219,998.747009 442.676880,1002.967163 435.828094,1000.113342 
	C434.728912,999.655396 433.958405,1000.101318 433.025299,1000.457336 
	C426.981384,1002.763062 420.776764,999.151672 414.632019,1000.884583 
	C413.635468,1001.165710 412.110657,999.573914 410.544739,998.686157 
	C409.967499,1001.113770 408.375244,1001.617188 405.905518,1000.365051 
z"/>
<path fill="#000000" opacity="1.000000" stroke="none" 
	d="
M327.831787,988.956909 
	C333.015381,988.517639 337.794037,991.149597 342.676819,989.169617 
	C343.002594,989.037537 343.809540,989.359863 343.977966,989.685364 
	C345.619598,992.858582 343.817841,995.808228 343.199310,998.807434 
	C342.714722,1001.156982 340.933502,1001.407104 338.918274,1000.788086 
	C338.443268,1000.642151 337.873077,1000.138550 337.546600,1000.275635 
	C331.900482,1002.647095 330.554474,999.226379 330.334625,993.732788 
	C328.587219,996.966797 329.589233,1001.607300 325.282684,1000.844421 
	C321.454376,1000.166382 314.416748,1003.614136 314.971863,994.635742 
	C314.381927,996.390625 313.957001,998.226624 313.147247,999.873474 
	C312.553864,1001.080200 303.798950,1001.427124 302.572418,1000.470642 
	C301.071320,999.300232 299.623169,991.162476 300.975433,990.069824 
	C303.198853,988.273132 306.021149,989.384460 308.535431,989.318604 
	C312.840851,989.205811 317.159698,989.046875 321.500885,989.418274 
	C323.348022,989.576172 325.700409,991.458557 327.831787,988.956909 
z"/>
<path fill="#000000" opacity="1.000000" stroke="none" 
	d="
M345.584167,1000.538635 
	C344.596924,999.076782 344.832214,998.083435 345.981262,997.308289 
	C346.656921,996.852478 347.926880,996.375549 347.914459,995.937012 
	C347.727478,989.348938 351.813843,989.625916 356.746124,989.335022 
	C360.272278,989.126953 361.736633,989.510010 362.015167,992.926086 
	C362.095673,993.913513 362.093018,994.907532 362.139832,995.898010 
	C362.300079,999.288818 362.169006,1001.744019 357.308655,1000.354614 
	C353.689636,999.319885 349.780518,1001.748474 345.584167,1000.538635 
z"/>
<path fill="#000000" opacity="1.000000" stroke="none" 
	d="
M302.632233,271.615112 
	C308.326385,287.790863 304.360687,301.963654 294.645508,314.672577 
	C283.209412,329.632690 263.277130,332.227753 250.557709,323.246094 
	C238.875092,314.996521 231.734665,303.271545 232.876343,288.281830 
	C233.786072,276.337738 237.550140,265.391022 245.457932,255.822678 
	C261.197449,236.778122 294.305939,244.263428 301.199707,267.461243 
	C301.578369,268.735565 302.061096,269.978912 302.632233,271.615112 
M268.543365,271.828949 
	C268.901764,263.897308 267.026031,261.106354 261.282471,261.025391 
	C256.618805,260.959656 251.268326,265.955963 250.510208,271.084595 
	C249.912369,275.128937 253.396240,279.009308 258.648132,280.148743 
	C263.353241,281.169556 265.688354,279.353699 268.543365,271.828949 
z"/>
<path fill="#000000" opacity="1.000000" stroke="none" 
	d="
M475.523560,472.457642 
	C482.492279,479.517242 486.334747,487.489044 486.224274,497.258392 
	C486.106506,507.671570 481.533081,515.486572 472.783051,520.829407 
	C454.145111,532.209900 428.041779,527.929871 413.644470,511.262573 
	C399.488434,494.874481 404.498016,471.667084 424.760468,464.042511 
	C442.695435,457.293823 460.122711,459.069794 475.523560,472.457642 
M445.742828,518.912659 
	C452.694397,519.309753 459.367554,517.827576 465.734985,515.308044 
	C476.163818,511.181427 480.819061,501.691223 477.569153,491.079498 
	C473.661285,478.319427 463.505341,472.560516 451.573456,469.546967 
	C438.621857,466.275879 427.170319,469.458710 417.933105,479.333740 
	C413.179230,484.415833 412.396301,490.270386 414.624603,496.932922 
	C419.514496,511.553894 431.599457,515.921936 445.742828,518.912659 
z"/>
<path fill="#000000" opacity="1.000000" stroke="none" 
	d="
M570.021667,536.391785 
	C567.337280,548.568726 557.419556,551.401428 547.686401,550.911438 
	C526.136780,549.826538 510.512878,535.741699 506.055115,514.497314 
	C503.524445,502.437042 511.164459,492.461456 523.460999,491.770477 
	C544.426147,490.592285 564.944641,505.847412 569.702148,526.065857 
	C570.480347,529.373230 570.372742,532.652405 570.021667,536.391785 
M533.422119,539.102844 
	C539.623779,542.496399 546.234314,543.724915 553.212036,542.624573 
	C560.343140,541.500000 563.821167,536.427063 562.477234,529.337585 
	C559.381775,513.008362 540.892944,498.555969 524.133484,499.365021 
	C516.956726,499.711517 512.200195,505.186340 513.741272,512.137024 
	C516.284912,523.609619 521.642944,533.303223 533.422119,539.102844 
z"/>
<path fill="#000000" opacity="1.000000" stroke="none" 
	d="
M456.333557,560.779297 
	C459.398743,547.688965 470.095795,542.196594 486.697327,546.007324 
	C496.640564,548.289551 504.182343,553.887756 508.812500,563.132874 
	C513.020020,571.533997 511.011383,580.044678 503.495453,585.709900 
	C488.048981,597.352844 462.883545,589.417053 456.894745,571.041687 
	C455.834534,567.788574 455.697998,564.519958 456.333557,560.779297 
M489.548401,555.851685 
	C483.088715,552.644165 476.387909,552.488953 469.642578,554.602783 
	C464.999207,556.057983 462.891388,559.852905 463.518158,564.319214 
	C464.857880,573.866089 472.014313,578.701111 479.988007,582.216980 
	C486.923615,585.275024 493.471832,583.093811 499.176056,578.783752 
	C502.679901,576.136414 503.573029,572.341553 501.861847,568.023682 
	C499.632324,562.397705 495.355713,558.898315 489.548401,555.851685 
z"/>
<path fill="#000000" opacity="1.000000" stroke="none" 
	d="
M296.168579,215.009109 
	C297.494598,217.775986 298.903870,220.346451 295.937408,222.417389 
	C293.219543,224.314743 291.271759,222.120300 289.359314,220.635071 
	C287.925110,219.521210 286.756683,218.068741 285.341705,216.925766 
	C280.737732,213.206833 275.718414,211.263336 269.638153,212.896790 
	C267.201965,213.551270 263.910736,214.522812 262.946655,210.900116 
	C261.955688,207.176346 264.377686,204.404266 267.729797,203.993515 
	C276.169434,202.959366 284.706085,202.612595 291.409088,209.460281 
	C293.028503,211.114624 294.476715,212.936554 296.168579,215.009109 
z"/>
<path fill="#000000" opacity="1.000000" stroke="none" 
	d="
M75.352028,326.680908 
	C76.466026,322.579437 77.409805,318.796295 79.849274,315.760651 
	C83.013565,311.823059 86.308037,312.399231 87.991051,317.075958 
	C90.247383,323.345856 88.160423,328.873779 84.668716,334.003845 
	C83.104507,336.302032 80.819550,338.112823 77.882881,336.931580 
	C75.220055,335.860474 74.936234,333.107574 74.883736,330.554321 
	C74.860008,329.400787 75.118820,328.241486 75.352028,326.680908 
z"/>
<path fill="#000000" opacity="1.000000" stroke="none" 
	d="
M154.599976,336.362610 
	C151.926147,340.491333 149.155334,344.015198 144.753204,345.721191 
	C141.825745,346.855713 139.500137,346.205994 139.905060,342.597443 
	C140.497787,337.314972 141.610443,332.106262 145.157822,327.804474 
	C146.479034,326.202271 148.029541,324.981323 150.109085,324.754150 
	C152.406952,324.503052 154.894836,324.100647 156.533615,326.318878 
	C157.981888,328.279297 157.437546,330.432007 156.552582,332.475189 
	C156.026917,333.688843 155.389511,334.854095 154.599976,336.362610 
z"/>
</svg>