<?xml version="1.0" encoding="UTF-8" standalone="no"?>
<svg
   xmlns:dc="http://purl.org/dc/elements/1.1/"
   xmlns:cc="http://creativecommons.org/ns#"
   xmlns:rdf="http://www.w3.org/1999/02/22-rdf-syntax-ns#"
   xmlns:svg="http://www.w3.org/2000/svg"
   xmlns="http://www.w3.org/2000/svg"
   viewBox="0 0 4084.2932 2666.6667"
   height="2666.6667"
   width="4084.2932"
   xml:space="preserve"
   id="svg2"
   version="1.1"><metadata
     id="metadata8"><rdf:RDF><cc:Work
         rdf:about=""><dc:format>image/svg+xml</dc:format><dc:type
           rdf:resource="http://purl.org/dc/dcmitype/StillImage" /></cc:Work></rdf:RDF></metadata><defs
     id="defs6" /><g
     transform="matrix(1.3333333,0,0,-1.3333333,0,2666.6667)"
     id="g10"><g
       transform="scale(0.1)"
       id="g12"><g
         transform="scale(1.07566)"
         id="g14"><path
           id="path16"
           style="fill:#100f0d;fill-opacity:1;fill-rule:nonzero;stroke:none"
           d="m 16152.9,7507.84 c -5.3,-97.62 -33.1,-277.04 -160.3,-382.65 -225.8,-187.33 -806.6,-148.84 -1153.8,-125.78 -47,3.07 -90.2,5.95 -128.6,7.99 -113,6.14 -242.8,16.74 -355.8,64.89 -141.5,60.43 -242.1,194.39 -269.1,358.48 -114.8,696.31 -94.4,2761.03 92.4,4088.63 177.7,1264.5 293.3,1318.8 602.3,1463.7 l 32.1,15.1 c 127.1,60 307.8,89.7 484.1,89.7 190.4,0 375.6,-34.6 482.3,-102.8 60.2,-38.5 89.2,-82.7 88.7,-134.9 0,-0.1 0,-0.1 0,-0.1 -9.3,-1044.2 19.1,-2089.7 84.7,-3107.27 l 5.2,-81.89 c 24.7,-382.01 50.1,-777.02 89.2,-1163.76 11.8,-116.39 30.8,-233.44 49,-346.67 34,-210.66 69.2,-428.57 57.6,-642.67 z m 27.7,1003.01 c -38.9,384.23 -64.2,777.94 -88.8,1158.77 l -5.2,81.89 c -65.3,1014.29 -93.8,2056.39 -84.5,3097.39 0.7,69.5 -25,169.3 -150.9,249.9 -268.9,172 -819.8,152.3 -1096.9,21.4 l -31.7,-14.9 c -372.7,-174.9 -499.2,-291.1 -678.6,-1567.1 -191.6,-1362.1 -210.7,-3409.07 -91.9,-4129.37 34.5,-209.83 165.2,-382.09 349.3,-460.74 133.1,-56.71 277.1,-68.7 401.5,-75.4 37.9,-2.04 80.5,-4.92 126.9,-7.99 140.7,-9.3 307.1,-20.36 475,-20.36 299.1,0 602.9,35.05 774,177.01 123.5,102.54 197.7,272.76 208.8,479.24 12.4,228.51 -23.9,453.67 -59.1,671.49 -17.9,111.19 -36.5,226.28 -47.9,338.77" /></g><g
         transform="scale(1.87926)"
         id="g18"><path
           id="path20"
           style="fill:#100f0d;fill-opacity:1;fill-rule:nonzero;stroke:none"
           d="m 11005,9962.4 c 489.2,65.9 4012.7,537.3 4688.9,548.5 1.8,0.1 181.5,10.2 317.1,-117 104.6,-98 157.6,-251.6 157.6,-456.49 0,-205.54 -53.4,-362.82 -158.8,-467.51 -130,-129.16 -299.7,-135.54 -316.7,-135.84 l -4689.9,471.92 c 10,23.75 16.2,50.22 16.2,80.43 0,27.37 -5.2,52.61 -14.4,75.99 z M 9744.03,9774.32 5147.18,9334.06 c -16.97,0.3 -186.81,6.64 -316.87,135.84 -105.36,104.69 -158.79,261.97 -158.79,467.51 0,204.89 53.04,358.49 157.64,456.49 135.61,127.1 315.32,117 319.1,116.9 696.48,-11.4 4315.87,-537.96 4597.47,-579.07 -9.9,-24.22 -15.59,-50.21 -15.59,-78.32 0,-29.26 5.11,-55.46 13.89,-79.09 z M 10145,9612.38 c -0.1,0.75 -8.2,75.6 41.5,132.26 41,46.54 110.4,70.15 206.3,70.15 102.3,0 174.7,-23.11 215,-68.67 41.1,-46.36 34.9,-101.39 34.7,-103.38 -0.4,-2.34 -0.4,-4.71 -0.4,-7.08 l 40.8,-896.16 c -220.2,5.09 -403,-12.19 -537.6,-32.8 v 900.72 c 0,1.66 -0.1,3.32 -0.3,4.96 z m 797.1,274.03 c 0,-127.27 -162.8,-159.91 -232.3,-168.08 -7.6,24.81 -20.6,51.99 -42.9,77.62 -55.5,63.76 -147.7,96.08 -274.1,96.08 -119.1,0 -208.1,-32.43 -264.3,-96.4 -42.7,-48.58 -56.2,-104.45 -60,-143.61 -82.94,15.13 -261.1,63.65 -261.1,201.39 0,181.99 388.9,273.39 606.7,273.39 219.2,0 528,-74.6 528,-240.39 z m -1043.65,-1557.63 36.98,255.83 c 94.97,25.75 477.47,115.64 1012.27,60.93 l 41.1,-233.89 c -342.1,-2.9 -706.2,-30.59 -1090.35,-82.87 z m 4587.45,-4124.9 c -1400.5,-420.59 -2817.4,-538.03 -3992.6,-330.23 -379.9,67.2 -621.19,340.23 -662.11,749.17 -132.66,1326.57 -103.87,3325.72 -99.08,3603.84 894.69,137.16 1682.79,144.03 2343.19,19.57 470.9,-88.77 893.1,-269.5 1221.1,-522.69 338.4,-261.28 618.6,-658.15 832.8,-1179.58 202.2,-492.23 324,-1048.67 362.1,-1653.85 11.8,-187.95 15.8,-425.6 -5.4,-686.23 z M 1202.38,3898.55 c 35.43,-138.73 133.48,-252.6 262.55,-309.01 -42.4,-93.22 -78.79,-192.57 -113.88,-288.89 -86.94,-238.76 -176.85,-485.66 -366.936,-655.36 -145.003,-129.36 -353.436,-176.93 -531.159,-121.16 -156.573,49.16 -264.49,167.51 -303.886,333.21 -85.0251,357.48 153.246,663.56 708.213,909.72 115.078,51.08 197.098,85.94 345.098,131.49 z m 62.44,113.93 c 0,211.99 172.43,384.4 384.37,384.4 211.93,0 384.36,-172.41 384.36,-384.4 0,-211.9 -172.43,-384.3 -384.36,-384.3 -211.94,0 -384.37,172.4 -384.37,384.3 z m 1154.43,213.17 c -107.86,-47.74 -186.72,-81.31 -317.49,-122.55 -30.3,151.65 -135.07,276.7 -274.48,335.23 41.25,91.48 75.93,186.35 109.27,278.36 86.06,237.59 167.36,461.99 356.84,630.81 145.1,129.32 353.64,176.72 531.26,120.73 156.53,-49.3 264.34,-167.7 303.61,-333.45 84.71,-357.54 -153.83,-663.45 -709.01,-909.13 z m -884.91,1505.8 c 42.15,-100.96 223.52,-536.6 364.78,-892.27 -11.97,-32.08 -23.63,-64.23 -35.22,-96.21 -33.84,-93.38 -68.96,-189.75 -110.67,-281.12 -33.49,7.77 -68.21,12.3 -104.04,12.3 -254.54,0 -461.62,-207.11 -461.62,-461.67 0,-12.51 0.89,-24.8 1.88,-37.04 -32.14,-9.79 -61.2,-19.1 -88.18,-28.15 -103.992,512.38 -233.851,1428.48 -255.044,1579.64 63.715,50.27 321.734,232.09 688.114,204.52 z M 13029,1890.85 c -0.1,-0.06 -0.2,0 -0.3,-0.06 -0.1,-0.05 -0.2,-0.21 -0.4,-0.26 -325.3,-144.21 -655.3,-211.89 -930.7,-241.59 35.8,90.2 70.2,162.09 96,215.99 24.1,50.29 39.9,83.49 45.3,106.8 5.4,23.89 4.8,48.32 -1.7,70.56 -26.2,89.24 -102.2,151.12 -203.3,165.49 -119.5,17.03 -237.4,-35.55 -300.2,-133.88 -84.2,-132.23 -151.1,-296.02 -204,-466.67 -677.2,-38.42 -1252.7,-28.37 -1764.23,33.89 -2.87,0.64 -5.58,1.12 -8.51,1.07 -376.96,46.34 -719.17,121.16 -1041.84,225.72 23.73,54.6 45.71,100.68 63.58,138.03 24.06,50.24 39.97,83.44 45.29,106.7 5.48,23.94 4.89,48.42 -1.65,70.66 -26.18,89.24 -102.17,151.07 -203.33,165.49 -119.67,16.92 -237.38,-35.54 -300.11,-133.88 -30.71,-48.21 -59.39,-102.11 -86.15,-160.22 -338.97,155.91 -610.19,341.14 -827.78,565.7 -45.6,47.09 -87.85,97.27 -128.72,145.75 -102.43,121.59 -208.37,247.33 -370.03,325.34 -226.74,109.61 -482.91,128.61 -705.23,137.82 -53.1,2.18 -109.35,3.3 -167.14,3.3 -690.32,0 -1392.27,3.3 -2071.1,6.49 l -367.02,1.7 c -110.2,0.8 -285.34,-2.18 -488.26,-5.37 -536.93,-8.36 -1348.39,-20.97 -1506.65,23.73 -53.89,15.27 -105.91,40.81 -155.21,75.03 28.81,78.27 58.97,157.03 92.87,230.73 35.54,-8.84 72.49,-14 110.71,-14 254.54,0 461.61,207.05 461.61,461.57 0,4.15 -0.51,8.14 -0.62,12.23 104.36,32.46 176.43,59.81 251.95,91.8 1.97,-1.33 3.57,-3.04 5.83,-4.05 68.99,-29.74 151.52,-19.1 224.38,-9.79 18.1,2.34 35.63,4.63 52.09,6.07 328.97,29.32 662.31,76.04 984.68,121.21 126.75,17.78 253.38,35.5 379.87,52.26 440.97,58.37 881.81,117.6 1322.63,177.2 177.99,24.05 356.04,48.15 534.68,72.52 34.05,5.22 835.54,133.89 1021.94,693.09 57.84,173.52 109.62,351.77 159.69,524.15 196.89,677.88 382.86,1318.16 931.11,1797.66 373.92,327.06 915.46,544.51 1655.54,664.78 6.76,1.09 13.36,2.01 20.06,3.09 -5.37,-324.62 -31.39,-2288.46 99.72,-3599.59 43.9,-439.32 315.15,-744.98 725.45,-817.51 384,-67.89 793.3,-101.47 1219.4,-101.47 881.4,0 1833.9,144.15 2779.3,425.11 -57.2,-570.81 -239.4,-1235.48 -720.3,-1729.56 -220.8,-226.84 -473.5,-387.38 -729.2,-500.83 z M 11908.3,860.924 c 10.2,92.747 27.3,205.296 54.8,334.546 908,13.46 1593.9,24.32 2039.2,32.35 2.9,0.21 283.7,11.5 303.4,-158.04 4.9,-42.2 -4,-75.826 -27.1,-102.752 -55.8,-65.025 -174.7,-70.08 -175.3,-70.134 -10,-0.16 -1005.1,-17.72 -2195,-35.97 z M 9262.24,474.548 c 543.89,6.972 1343.36,18.038 2103.76,31.607 3.1,-1.01 6,-2.34 9.4,-2.552 0.8,-0.054 1.7,-0.054 2.5,-0.054 5.3,0 10.3,1.118 14.9,3.086 154.6,2.767 307.5,5.64 456.1,8.62 3.4,-0.586 6.9,-0.958 10.4,-0.586 1.2,0.054 2.1,0.692 3.2,0.852 387.6,7.822 745.9,16.23 1030.1,25.01 2.9,0.212 283.7,11.441 303.3,-158.04 4.9,-42.198 -4,-75.828 -27.1,-102.754 -55.8,-64.971 -174.7,-70.026 -175.2,-70.08 -48.8,-0.851 -4897.72,-86.204 -6132.08,-77.742 -1.6,0 -168.15,-2.875 -242.97,70.08 -22.83,22.295 -33.95,49.273 -34,82.425 -0.06,44.432 13.73,78.968 42.25,105.574 76.89,71.943 231.36,62.205 232.91,62.099 l 0.16,2.5 c 46.29,-4.895 192.95,-3.564 716.13,1.225 480.56,4.363 1095.21,11.226 1686.24,18.73 z M 8498.86,1467.7 c -61.62,-252.17 -91.26,-504.131 -105.47,-686.649 0,-0.266 -0.16,-0.426 -0.16,-0.638 0,-0.106 0.06,-0.16 0.06,-0.266 -8.57,-110.63 -11.55,-195.504 -12.56,-239.404 -142.45,-1.596 -278.46,-3.032 -406.54,-4.363 18.09,191.247 124.46,1189.51 409.89,1636.97 52.84,82.85 150.7,109.19 224.08,98.92 70.29,-10 122.65,-51.4 140.05,-110.79 2.82,-9.63 2.98,-20.48 0.48,-31.55 -3.46,-14.95 -20.22,-50.02 -39.64,-90.62 -53.9,-112.65 -144.15,-301.18 -210.19,-571.61 z m 1230.27,100.41 c 50.34,-144.15 83.38,-263.77 99.51,-326.03 -133.83,-1.86 -263.67,-3.67 -388.4,-5.43 -12.77,73.6 -60.45,210.99 -139.63,400.85 143.14,-28.25 286.28,-51.29 428.52,-69.39 z m 220.78,-270.37 c -13.09,49.28 -33.15,120.74 -60.66,206.41 249.05,-12.39 792.45,-36.61 1246.85,-36.61 111.9,0 212.5,1.49 300.7,4.37 -12.1,-46.62 -25.7,-101.11 -37.9,-153.41 -248.3,-3.68 -497.3,-7.29 -741.7,-10.7 -242.2,-3.35 -479.7,-6.7 -707.29,-10.06 z M 11301.3,720.335 c -3.7,-33.258 -6.5,-60.396 -8.3,-80.669 -0.1,-1.224 -0.2,-2.448 -0.3,-3.619 -801.3,-13.887 -1803.08,-28.042 -2778.83,-39.163 0.95,25.86 2.44,56.563 4.52,91.417 595.87,3.139 1508.71,13.624 2782.91,32.034 z M 8513.71,1146.62 c 649.03,8.89 1790.39,24.64 2912.19,40.97 -23.8,-121.96 -41.5,-236.686 -54.5,-334.756 -1302.3,-19.209 -2276.56,-30.437 -2897.39,-33.416 8.36,95.94 20.86,207.842 39.7,327.202 z m 653.34,140.43 c -94.19,-1.28 -184.49,-2.45 -270.16,-3.67 l -129.68,-1.76 c -61.3,-0.85 -119.78,-1.65 -175.23,-2.45 10.65,54.44 22.19,107.17 34.43,157.51 24.21,99.13 54.12,195.56 90.78,292.67 147.4,-46.24 300.44,-86.37 464.17,-121.75 l 98.5,-319.06 z m 2835.25,329.11 c -0.1,-0.05 -0.1,-0.16 -0.2,-0.21 -30.7,-83.22 -61.5,-179.38 -88.4,-289.26 -93.1,-381.161 -99.3,-638.921 -97.5,-734.809 -128.1,-2.554 -260.4,-5.055 -396.2,-7.556 17.1,198.906 102.7,1014.975 378.9,1448.015 52.9,82.85 150.8,109.4 224.1,98.92 70.3,-9.95 122.7,-51.35 140.1,-110.73 2.8,-9.74 3,-20.44 0.4,-31.61 -3.4,-14.9 -20.1,-50.02 -39.5,-90.57 -32,-66.89 -76.8,-160.65 -121.7,-282.19 z m 47.1,-288.03 c 16.4,63.64 35.4,126.54 57.5,190.23 146.1,18.36 344.8,57.74 452.6,80.03 48.3,-122.92 75.2,-206.52 90.2,-261.32 -104.8,-1.6 -211.7,-3.19 -320.5,-4.79 z m 972.4,475.24 c 90.2,-231.69 145.4,-434.75 165,-511.91 -122.5,-1.97 -252.9,-3.99 -390.7,-6.12 -9,54.39 -38,170.55 -127.6,394.26 116.2,32.72 234.9,73.43 353.3,123.77 z M 7969.45,1139.33 c 1.06,-0.05 2.18,0 3.19,-0.05 l 4.58,0.05 c -20.43,-116.91 -36.5,-226.206 -48.85,-319.912 -39.06,1.382 -142.98,10.162 -198.59,64.387 -23.84,23.199 -35.44,51.934 -35.49,87.906 -0.05,44.379 13.78,78.909 42.25,105.569 76.89,71.95 231.37,62.16 232.91,62.05 z m 7736.25,9503.17 c -8.5,0 -14.6,-0.3 -17.9,-0.4 -699.4,-12.3 -4233.6,-486.5 -4709.3,-550.7 -56.6,52.3 -137.1,93.5 -240.3,122.9 -99,28.2 -214.1,43.7 -324.2,43.7 -182,0 -485.91,-53.5 -640.55,-197.5 -254.08,37.2 -3897,568.8 -4620.95,581.6 -3.32,0.1 -9.39,0.4 -17.82,0.4 -55.87,0 -200.36,-10.2 -335.14,-104.1 -118.29,-82.4 -259.3,-253.6 -259.3,-600.89 0,-581.28 397.9,-734.87 608.3,-734.87 0.43,0 1.35,0 1.78,0.01 2.52,0.03 5.04,0.17 7.55,0.42 l 4612.23,441.88 c 73.01,-67.05 173.05,-100.09 244,-116 v -791.04 c -88.78,-18.21 -138.69,-33.81 -141.3,-34.63 -33.95,-10.71 -58.74,-39.9 -63.85,-75.13 l -38.05,-262.76 c -28.41,-4.23 -57.79,-8.75 -88.65,-13.64 -0.91,-0.11 -1.81,-0.24 -2.66,-0.38 -7.66,-1.2 -15.38,-2.36 -23.09,-3.52 -14.64,-2.19 -29.33,-4.41 -43.74,-6.88 C 8848.41,8216.83 8285.48,7989.35 7892.45,7645.69 7315.42,7140.8 7115.34,6452.04 6921.81,5785.96 6872.05,5614.72 6820.6,5437.64 6763.55,5266.48 6604.13,4788.21 5871.29,4665.6 5846.97,4661.67 l -533,-72.16 c -429.08,-58.05 -873.9,-117.65 -1322.08,-177.04 -127.77,-16.92 -257.73,-35.12 -383.41,-52.78 -279.75,-39.22 -567.83,-79.61 -852.87,-108.45 416.58,251.53 584.76,557.93 500.59,913.6 -65.94,278.23 -296.1,457.98 -586.36,457.99 -170.81,0.02 -335.56,-62.99 -463.91,-177.41 -121.08,-107.79 -202.17,-234.71 -263.44,-361.57 -60.41,149.42 -120.82,296.76 -167.03,408.96 -74.91,181.07 -129.04,310.68 -129.04,310.68 -13.15,31.48 -42.53,53.19 -76.48,56.53 -37.27,3.66 -75.04,5.53 -112.24,5.53 -430.71,0.03 -703.702,-243.81 -715.116,-254.19 -22.621,-20.58 -33.642,-51 -29.443,-81.29 C 714.588,5519.6 852.844,4523.79 965.613,3955.75 910.122,3933.99 859.932,3911.9 804.007,3887 182.87,3611.63 -80.5231,3254.89 21.3182,2826.9 87.3534,2549.14 317.312,2369.65 607.163,2369.65 c 171.036,0 335.971,63.11 464.427,177.73 193.47,172.67 290.26,402.82 375.13,632.38 38.17,-19.75 77.65,-35.44 118.15,-46.99 61.26,-17.29 201.04,-37.09 744.14,-37.09 262.28,0 548.85,4.47 801.69,8.41 187.01,2.93 348.52,5.43 457.89,5.43 l 26.53,-0.06 405.86,-1.91 c 666.22,-3.14 1355.11,-6.44 2032.82,-6.44 57.1,0 110.1,-0.96 161.98,-2.98 209.07,-8.89 449.54,-26.61 653.44,-125 136.28,-65.71 228.61,-175.39 326.36,-291.55 42.35,-50.23 86.15,-102.27 135,-152.72 219.5,-226.31 489.12,-414.2 822.5,-572.77 -37.14,-96.74 -72.26,-207 -104.78,-328.96 -29.37,-109.41 -56.62,-228.92 -81.09,-356.1 -76.68,-0.16 -217,-14.1 -307.14,-104.35 -50.61,-50.66 -77.27,-118.18 -77.21,-195.235 0.31,-177.037 145.74,-257.442 295.91,-278.034 -4.26,-36.611 -7.66,-68.486 -10.38,-94.718 -237,-4.151 -905.56,-15.698 -979.26,-15.698 h -2.02 c -4.16,0.266 -14.11,0.798 -28.21,0.798 -76.31,0 -217.85,-13.569 -308.58,-104.402 -50.6,-50.66 -77.26,-118.185 -77.15,-195.237 0.32,-209.3366 218.06,-283.567833 404.41,-283.567833 2.34,0 4.1,0 5.27,0 C 6922.34,0.214096 6990.24,0 7065.21,0 8549.46,0 12951.8,77.4239 12996,78.1681 c 19.5,0.6402 180.3,8.9401 272.1,115.5249 47.2,54.755 67.3,125.261 58.2,203.909 -23.5,202.367 -233,274.47 -421.1,274.47 -9.5,0 -15.7,-0.212 -17.9,-0.318 -240.5,-7.45 -548.5,-15.006 -939.3,-23.096 0.5,23.096 1.5,50.34 3.4,81.629 1171.9,17.878 2144.4,35.012 2154.4,35.172 19.4,0.638 180.2,8.886 272.1,115.525 47.2,54.755 67.3,125.266 58.1,203.906 -23.2,202.32 -232.7,274.47 -421.1,274.47 -8.5,0 -14.4,-0.16 -17.1,-0.26 -183.1,-3.36 -400,-6.92 -640.8,-10.86 l -49,-0.8 c -22.7,87 -71.4,259.57 -147.3,460.45 265.9,128.19 498.2,293.52 691.6,492.16 433.3,445.01 697.3,1090.53 763.6,1866.8 11.1,131.85 16.7,267.76 16.7,404.04 0,109.93 -3.5,220.19 -10.4,327.62 -38.9,618.99 -163.9,1189.39 -371.4,1695.25 -223.1,543.03 -517.2,958.12 -874,1233.82 -344.5,265.88 -786.1,455.27 -1277.2,547.73 -279.9,52.83 -793.5,79.56 -986.4,88.08 l -41.2,233.39 c -7.1,40.46 -40,71.4 -80.8,76.03 -58.5,6.62 -118.4,11.77 -178.9,15.38 l -36.9,807.38 c 8.6,1.68 17.6,3.61 26.8,5.81 68.1,16.27 124.3,41.73 167.9,75.93 0.5,-0.05 0.9,-0.1 1.4,-0.15 L 15682,9203.11 c 2.7,-0.27 5.4,-0.43 8.1,-0.46 0.4,-0.01 1.3,-0.01 1.7,-0.01 210.4,0 608.3,153.59 608.3,734.87 0,520.29 -320.2,704.99 -594.4,704.99" /></g></g></g></svg>